# xmcd
#
# Track frame offsets: 
#        150
#        20588
#        36825
#        46929
#        59254
#        78783
#        89673
#        109515
#        129632
#        144556
#        160569
#        173282
#        192526
#        209136
#        221458
#        239119
#        259920
#        276641
#        293098
#        311452
#
# Disc length: 4361 seconds
#
# Revision: 0
# Processed by: cddbd v1.5.2PL0 Copyright (c) Steve Scherf et al.
# Submitted via: ExactAudioCopy v1.0b3
#
DISCID=2b110714
DTITLE=European Collection - ...A Foreign Affair!
DYEAR=1900
DGENRE=
TTITLE0=Grace Jones - I've Seen That Face
TTITLE1=Loredana Berte - Folle Citta
TTITLE2=Giorgio Moroder - Forever Dancing
TTITLE3=Paul Mauriat - Brasilia Cranaval
TTITLE4=Paul D'Angio - Ma Quale Idea
TTITLE5=They Might Be Giants - Istanbul
TTITLE6=La Bionda - Bandido
TTITLE7=Space - Just Blue
TTITLE8=Pussycat - Une Chambre por la Nuit
TTITLE9=Silent Circle - Shy Girl
TTITLE10=Pierre Groscolas - Lady Lay
TTITLE11=Laid Back - Sunshine Reggae
TTITLE12=Ian Lloyd and Stories - Mammy Blue
TTITLE13=Raffaella Carra - En el Amor Todo es Empezar
TTITLE14=Mike Oldfield - Foreign Affair
TTITLE15=Tako - Puttin on the Ritz
TTITLE16=Demis Roussos - My Only Fascination
TTITLE17=Kraftwerk - The Model
TTITLE18=Ricardo Fogli - Campagnia
TTITLE19=Jean-Michel Jarre - Magnetic Fields, Part V
EXTD=# xmcd\n#\n# Track frame offsets:\n#\t150\n#\t19747\n#\t48377\n#\t
EXTD=62167\n#\t84612\n#\t102577\n#\t122290\n#\t146990\n#\t166172\n#\t1
EXTD=83492\n#\t198860\n#\t210447\n#\t231435\n#\t252110\n#\t269925\n#\t
EXTD=289145\n#\t303992\n#\n# Disc length: 4286\n#\n# Revision: 1\n# Pr
EXTD=ocessed by: cddbd v1.5.2PL0 Copyright (c) Steve Scherf et al.\n# 
EXTD=Submitted via: EasyCDDAExtractor 4.6.9.1\n# Normalized: r0:TDELIM
EXTD=( - ]\n#\nDISCID=fc10bc11\nDTITLE=European Collection - ...A Fore
EXTD=ign Affair! [CD2]\nDYEAR=\nDGENRE=Misc\nTTITLE0=Chris De Burgh
EXTD=The Lady in Red\nTTITLE1=Jessica Jay - Casablanca\nTTITLE2=Vay
EXTD=a Con Dios - Don't Cry for Louie\nTTITLE3=Space - Symphony\nTTITL
EXTD=E4=Demis Roussos - My Reason\nTTITLE5=Patricia Kaas - Mon Mec a M
EXTD=oi\nTTITLE6=Baccara - Darling\nTTITLE7=Gilla - Go Down Mainstreet
EXTD=\nTTITLE8=Modern Talking - Cheri Cheri Lady\nTTITLE9=Mireille Mat
EXTD=hleu - Tous Les Enfants Chantent\nTTITLE10=Paul Mauriat - El Bimb
EXTD=o\nTTITLE11=Secret Service - Oh Susie\nTTITLE12=Loredana Berte - 
EXTD=E La Luna Busso'\nTTITLE13=Savage - Don't Cry Tonight\nTTITLE14=U
EXTD=mberto Tozzi - Tu\nTTITLE15=Joe Dassin - Si Tu T'appelles Melanco
EXTD=lie\nTTITLE16=Laid Back - White Horse\nEXTD=\nEXTT0=\nEXTT1=\nEXT
EXTD=T2=\nEXTT3=\nEXTT4=\nEXTT5=\nEXTT6=\nEXTT7=\nEXTT8=\nEXTT9=\nEXTT
EXTD=10=\nEXTT11=\nEXTT12=\nEXTT13=\nEXTT14=\nEXTT15=\nEXTT16=\nPLAYOR
EXTD=DER=\n
EXTT0=
EXTT1=
EXTT2=
EXTT3=
EXTT4=
EXTT5=
EXTT6=
EXTT7=
EXTT8=
EXTT9=
EXTT10=
EXTT11=
EXTT12=
EXTT13=
EXTT14=
EXTT15=
EXTT16=
EXTT17=
EXTT18=
EXTT19=
PLAYORDER=
